<svg width="440" height="262" viewBox="0 0 440 262" fill="none" xmlns="http://www.w3.org/2000/svg">
<path d="M177.31 79.15C182.223 67.3367 190.347 59.0733 201.68 54.36C219.12 47.11 236.31 52.11 250.48 63.27C250.593 63.359 250.687 63.4712 250.753 63.5991C250.82 63.7271 250.858 63.8678 250.866 64.0118C250.873 64.1558 250.85 64.2998 250.797 64.434C250.744 64.5682 250.664 64.6896 250.56 64.79L241.99 73.03C241.719 73.2903 241.366 73.45 240.992 73.4827C240.617 73.5155 240.242 73.4192 239.93 73.21C231.137 67.3233 222.167 65.02 213.02 66.3C210 66.72 207.323 67.6533 204.99 69.1C195.41 75.02 190.17 83.5933 189.27 94.82C189.253 95.0064 189.167 95.1795 189.03 95.3054C188.893 95.4312 188.715 95.5006 188.53 95.5L164.22 95.51C163.693 95.51 163.433 95.2467 163.44 94.72L163.48 80.26C163.48 79.92 163.65 79.75 163.99 79.75L176.27 79.84C176.77 79.8467 177.117 79.6167 177.31 79.15Z" fill="#1F66CF"/>
<path d="M220.087 107.72C228.035 107.692 234.456 101.612 234.43 94.1398C234.404 86.6674 227.94 80.6323 219.993 80.6601C212.045 80.6878 205.624 86.7679 205.65 94.2402C205.676 101.713 212.14 107.748 220.087 107.72Z" fill="#1F66CF"/>
<path d="M261.91 109.54C256.06 123.66 245.45 133.11 230.34 136.75C215.69 140.28 200.25 134.88 188.71 125.2C188.423 124.96 188.413 124.703 188.68 124.43L197.75 115.29C197.901 115.136 198.101 115.041 198.315 115.021C198.529 115.001 198.743 115.057 198.92 115.18C207.68 121.33 220.76 125.31 231.08 121.18C239.57 117.79 246.63 109.68 248.88 101.06C249.46 98.8467 249.887 96.47 250.16 93.93C250.213 93.4633 250.473 93.2333 250.94 93.24L273.91 93.25C274.085 93.25 274.253 93.3195 274.377 93.4433C274.5 93.5671 274.57 93.735 274.57 93.91L274.49 108.27C274.49 108.337 274.477 108.402 274.451 108.464C274.425 108.525 274.388 108.581 274.34 108.627C274.293 108.674 274.236 108.71 274.174 108.735C274.113 108.759 274.047 108.771 273.98 108.77L263.16 108.71C262.56 108.703 262.143 108.98 261.91 109.54Z" fill="#1F66CF"/>
<path d="M300.41 191.96L301 192.03C301.182 192.049 301.352 192.131 301.482 192.262C301.613 192.392 301.697 192.564 301.72 192.75L302.04 195.3C302.087 195.68 301.92 195.903 301.54 195.97C296.33 196.88 291.69 195.95 291.61 189.88C291.457 178.667 291.433 167.353 291.54 155.94C291.543 155.825 291.59 155.716 291.672 155.635C291.755 155.555 291.865 155.51 291.98 155.51L299 155.49C299.167 155.49 299.25 155.577 299.25 155.75L299.26 190.66C299.26 190.981 299.377 191.291 299.589 191.531C299.801 191.77 300.093 191.923 300.41 191.96Z" fill="#1F66CF"/>
<path d="M366.46 178.22C366.46 179.38 366.817 179.503 367.53 178.59L375.01 169.04C375.272 168.707 375.607 168.438 375.99 168.254C376.373 168.07 376.794 167.977 377.22 167.98L382.49 168.03C383.303 168.037 383.443 168.347 382.91 168.96L374.61 178.59C374.499 178.721 374.433 178.883 374.421 179.054C374.408 179.224 374.45 179.395 374.54 179.54C377.8 184.753 381.197 190.103 384.73 195.59C384.734 195.598 384.737 195.606 384.737 195.615C384.738 195.623 384.736 195.631 384.733 195.638C384.73 195.645 384.726 195.651 384.72 195.655C384.714 195.659 384.707 195.66 384.7 195.66C382.153 195.773 379.66 195.777 377.22 195.67C377.093 195.663 377 195.607 376.94 195.5L370.3 184.54C370.08 184.18 369.817 184.147 369.51 184.44C366.28 187.54 366.11 190.32 366.54 194.67C366.613 195.41 366.28 195.78 365.54 195.78L359.49 195.74C358.99 195.74 358.74 195.49 358.74 194.99L358.76 156.25C358.76 155.757 359.007 155.51 359.5 155.51L365.75 155.49C366.257 155.483 366.51 155.737 366.51 156.25L366.46 178.22Z" fill="#1F66CF"/>
<path d="M312.352 162.09C314.898 162.121 316.979 160.767 317 159.066C317.02 157.365 314.973 155.961 312.428 155.93C309.882 155.899 307.801 157.253 307.78 158.954C307.76 160.655 309.807 162.059 312.352 162.09Z" fill="#1F66CF"/>
<path d="M187.05 165.82C186.383 168.887 187.49 171.11 190.37 172.49C193.37 173.923 196.337 175.297 199.27 176.61C206.59 179.9 207.85 187.93 201.85 193.19C200.057 194.763 197.77 195.723 194.99 196.07C189.33 196.77 182.82 195.82 178.56 191.69C178.067 191.217 178.027 190.703 178.44 190.15L180.76 187.1C181.14 186.6 181.557 186.567 182.01 187C185 189.86 190.37 192.95 194.57 191.21C198.92 189.41 198.84 183.16 194.63 181.03C191.85 179.623 189.173 178.357 186.6 177.23C183.68 175.95 180.15 173.58 179.31 170.27C177.87 164.56 182.91 159.47 187.92 158.45C193.973 157.23 199.16 158.317 203.48 161.71C204.127 162.217 204.16 162.76 203.58 163.34L201.22 165.75C200.667 166.303 200.13 166.287 199.61 165.7C197.32 163.1 192.35 161.43 188.88 163.38C187.887 163.94 187.277 164.753 187.05 165.82Z" fill="#1F66CF"/>
<path d="M75.06 184.98L64.53 185.02C64.4335 185.02 64.3396 185.051 64.2622 185.109C64.1847 185.167 64.1279 185.248 64.1 185.34L61.12 195.45C61.0935 195.546 61.0359 195.63 60.9563 195.69C60.8767 195.75 60.7795 195.781 60.68 195.78L53.86 195.71C53.7884 195.709 53.7179 195.692 53.6546 195.658C53.5912 195.625 53.5367 195.577 53.4956 195.518C53.4545 195.459 53.4281 195.392 53.4184 195.321C53.4087 195.25 53.4161 195.178 53.44 195.11L65.56 158.82C65.5891 158.731 65.6452 158.653 65.7205 158.598C65.7957 158.542 65.8865 158.512 65.98 158.51L73.94 158.49C74.0353 158.49 74.1282 158.519 74.2055 158.575C74.2828 158.631 74.3404 158.709 74.37 158.8L86.49 195.22C86.5122 195.288 86.518 195.36 86.5068 195.43C86.4957 195.501 86.468 195.567 86.426 195.625C86.384 195.683 86.3289 195.729 86.2653 195.762C86.2017 195.794 86.1313 195.81 86.06 195.81L78.94 195.7C78.8439 195.697 78.7513 195.663 78.6757 195.604C78.6002 195.545 78.5456 195.463 78.52 195.37L75.5 185.3C75.4716 185.206 75.4133 185.124 75.3338 185.066C75.2544 185.008 75.1582 184.978 75.06 184.98ZM69.7 166.34L65.62 180.23C65.6031 180.289 65.6 180.351 65.6111 180.412C65.6222 180.473 65.6471 180.53 65.6838 180.579C65.7206 180.628 65.7682 180.669 65.8231 180.696C65.8779 180.724 65.9385 180.739 66 180.74L73.48 180.75C73.5576 180.75 73.6341 180.731 73.7035 180.697C73.773 180.663 73.8333 180.613 73.8799 180.552C73.9265 180.491 73.958 180.42 73.9719 180.345C73.9858 180.27 73.9817 180.193 73.96 180.12L69.93 166.34C69.9226 166.315 69.9074 166.294 69.8867 166.278C69.866 166.263 69.8408 166.254 69.815 166.254C69.7892 166.254 69.764 166.263 69.7433 166.278C69.7226 166.294 69.7074 166.315 69.7 166.34Z" fill="#333333"/>
<path d="M133.25 172.94C133.243 177.693 133.25 182.36 133.27 186.94C133.29 189.53 133.87 193.17 137.61 191.94C138.297 191.72 138.977 191.507 139.65 191.3C140.13 191.153 140.423 191.323 140.53 191.81L141.07 194.32C141.19 194.88 140.973 195.243 140.42 195.41C131.06 198.19 125.43 195.31 125.49 185.12C125.517 181.073 125.513 177.01 125.48 172.93C125.48 172.483 125.253 172.257 124.8 172.25L122.19 172.24C121.657 172.24 121.407 171.973 121.44 171.44L121.62 169.02C121.653 168.487 121.94 168.223 122.48 168.23L125.26 168.28C125.406 168.283 125.548 168.23 125.656 168.131C125.764 168.032 125.83 167.896 125.84 167.75L126.34 160.46C126.347 160.327 126.417 160.26 126.55 160.26L133 160.23C133.173 160.23 133.26 160.32 133.26 160.5V167.5C133.26 167.827 133.423 167.99 133.75 167.99L140.26 168.01C140.427 168.01 140.51 168.093 140.51 168.26L140.5 171.76C140.5 172.1 140.33 172.267 139.99 172.26L133.95 172.24C133.483 172.24 133.25 172.473 133.25 172.94Z" fill="#333333"/>
<path d="M159.888 196.305C158.019 196.452 156.14 196.224 154.357 195.633C152.574 195.043 150.922 194.101 149.495 192.863C148.068 191.625 146.895 190.114 146.042 188.416C145.189 186.719 144.673 184.868 144.524 182.97C144.222 179.136 145.432 175.341 147.886 172.42C150.341 169.499 153.839 167.692 157.612 167.395C159.48 167.248 161.36 167.476 163.143 168.067C164.926 168.657 166.578 169.599 168.005 170.837C169.431 172.075 170.605 173.586 171.458 175.284C172.311 176.981 172.827 178.832 172.976 180.73C173.278 184.564 172.068 188.359 169.614 191.28C167.159 194.201 163.661 196.008 159.888 196.305ZM158.719 192.08C160.379 192.091 161.979 191.026 163.166 189.117C164.353 187.209 165.031 184.614 165.05 181.904C165.059 180.562 164.907 179.232 164.601 177.989C164.295 176.747 163.841 175.617 163.267 174.664C162.692 173.711 162.007 172.954 161.251 172.435C160.496 171.916 159.683 171.646 158.861 171.64C157.201 171.629 155.601 172.694 154.414 174.603C153.227 176.511 152.549 179.106 152.53 181.816C152.521 183.158 152.673 184.488 152.979 185.731C153.285 186.973 153.739 188.103 154.313 189.056C154.888 190.009 155.573 190.766 156.329 191.285C157.084 191.804 157.897 192.074 158.719 192.08Z" fill="#333333"/>
<path d="M249.01 170.02C250.45 169.25 251.97 168.3 253.55 167.91C257.863 166.83 261.453 167.683 264.32 170.47C264.627 170.763 264.96 170.793 265.32 170.56C267.24 169.33 269.23 168.03 271.54 167.69C281.13 166.28 283.19 173.31 283.06 181.1C282.987 185.933 282.98 190.643 283.04 195.23C283.047 195.617 282.857 195.807 282.47 195.8L275.95 195.72C275.457 195.713 275.213 195.463 275.22 194.97C275.34 188.803 275.297 182.607 275.09 176.38C274.97 172.84 273.427 171.51 270.46 172.39C270.433 172.397 270.36 172.417 270.24 172.45C267.32 173.31 265.883 175.273 265.93 178.34C266.01 183.64 266.03 189.223 265.99 195.09C265.983 195.543 265.753 195.767 265.3 195.76L259.02 195.74C258.54 195.74 258.3 195.5 258.3 195.02C258.253 189.24 258.23 183.337 258.23 177.31C258.223 175.777 257.843 174.387 257.09 173.14C256.785 172.63 256.309 172.246 255.746 172.055C255.184 171.864 254.572 171.88 254.02 172.1C252.36 172.75 249 174.63 249 176.76C249 182.927 249 189.093 249 195.26C249 195.6 248.83 195.77 248.49 195.77L242.23 195.7C241.75 195.7 241.51 195.46 241.51 194.98V168.49C241.51 168.157 241.677 167.993 242.01 168L247.75 168.02C248.077 168.02 248.24 168.18 248.24 168.5V169.55C248.24 170.137 248.497 170.293 249.01 170.02Z" fill="#1F66CF"/>
<path d="M332.95 170.21C336.07 168.02 339.53 166.94 343.37 167.67C349.42 168.82 350.21 174.1 350.23 179.25C350.257 184.597 350.237 189.843 350.17 194.99C350.169 195.1 350.146 195.208 350.102 195.309C350.059 195.41 349.995 195.501 349.916 195.578C349.837 195.654 349.744 195.714 349.641 195.754C349.539 195.793 349.43 195.813 349.32 195.81L343.45 195.7C343.318 195.699 343.187 195.671 343.066 195.619C342.944 195.567 342.834 195.491 342.742 195.397C342.65 195.302 342.578 195.19 342.529 195.067C342.481 194.944 342.457 194.812 342.46 194.68C342.58 188.773 342.543 182.737 342.35 176.57C342.243 173.11 340.647 171.67 337.56 172.25C337.487 172.263 337.423 172.277 337.37 172.29C334.197 172.883 332.637 174.833 332.69 178.14C332.77 183.373 332.783 189.007 332.73 195.04C332.73 195.493 332.5 195.723 332.04 195.73L325.6 195.81C325.207 195.817 325.01 195.62 325.01 195.22L325 168.62C325 168.207 325.21 168 325.63 168L331.1 168.01C331.667 168.01 331.96 168.29 331.98 168.85L332.03 169.76C332.063 170.467 332.37 170.617 332.95 170.21Z" fill="#1F66CF"/>
<path d="M108.77 193.7C108.739 193.613 108.688 193.535 108.621 193.473C108.554 193.41 108.473 193.365 108.385 193.341C108.297 193.318 108.205 193.316 108.117 193.337C108.029 193.357 107.947 193.4 107.88 193.46C105.72 195.327 103.003 196.25 99.73 196.23C92.04 196.2 90.59 190.79 90.7 184.28C90.7867 178.947 90.7933 173.627 90.72 168.32C90.7133 168.107 90.8167 168 91.03 168H97.99C98.0643 168 98.1355 168.03 98.188 168.082C98.2405 168.135 98.27 168.206 98.27 168.28C98.2367 173.473 98.2333 178.547 98.26 183.5C98.2733 186.527 98.75 188.987 99.69 190.88C99.83 191.167 100.057 191.343 100.37 191.41C103.52 192.11 108.04 190.16 108.02 186.39C107.987 180.517 107.983 174.563 108.01 168.53C108.01 168.177 108.187 168 108.54 168H115.25C115.583 168 115.75 168.167 115.75 168.5V195.25C115.75 195.383 115.697 195.51 115.604 195.604C115.51 195.697 115.383 195.75 115.25 195.75L109.49 195.76C109.203 195.767 109.057 195.623 109.05 195.33C109.043 194.77 108.95 194.227 108.77 193.7Z" fill="#333333"/>
<path d="M223.35 186.93L228.96 168.22C229 168.093 229.087 168.03 229.22 168.03L236.38 168.01C236.4 168.011 236.42 168.016 236.438 168.025C236.456 168.035 236.471 168.048 236.483 168.063C236.494 168.079 236.502 168.096 236.505 168.115C236.508 168.133 236.506 168.152 236.5 168.17C233.233 177.557 229.927 186.997 226.58 196.49C224.28 203.03 220.63 208.4 212.74 207.22C212.06 207.12 211.373 207.057 210.68 207.03C210.24 207.017 210.067 206.797 210.16 206.37L210.88 202.92C210.899 202.835 210.937 202.755 210.992 202.687C211.047 202.619 211.117 202.565 211.196 202.53C211.275 202.495 211.362 202.479 211.447 202.484C211.533 202.49 211.616 202.516 211.69 202.56C214.6 204.28 217.44 202.18 218.39 199.32C218.67 198.493 218.957 197.673 219.25 196.86C219.495 196.177 219.48 195.427 219.21 194.75L208.63 168.28C208.617 168.248 208.612 168.212 208.615 168.178C208.619 168.143 208.631 168.11 208.651 168.081C208.671 168.052 208.698 168.028 208.729 168.013C208.76 167.997 208.795 167.989 208.83 167.99L215.96 168.06C216.033 168.06 216.083 168.097 216.11 168.17C218.657 174.717 220.893 180.973 222.82 186.94C223 187.507 223.177 187.503 223.35 186.93Z" fill="#1F66CF"/>
<path d="M315.62 168.01H309.14C308.792 168.01 308.51 168.292 308.51 168.64V195.12C308.51 195.468 308.792 195.75 309.14 195.75H315.62C315.968 195.75 316.25 195.468 316.25 195.12V168.64C316.25 168.292 315.968 168.01 315.62 168.01Z" fill="#1F66CF"/>
</svg>
