<svg width="112" height="88" viewBox="0 0 112 88" fill="none" xmlns="http://www.w3.org/2000/svg">
<path d="M14.31 29.15C19.2233 17.3367 27.3467 9.07333 38.68 4.36C56.12 -2.89 73.31 2.11 87.48 13.27C87.5935 13.359 87.6866 13.4712 87.7531 13.5991C87.8196 13.7271 87.8579 13.8678 87.8655 14.0118C87.8731 14.1558 87.8498 14.2998 87.7971 14.434C87.7444 14.5682 87.6635 14.6896 87.56 14.79L78.99 23.03C78.7186 23.2903 78.3663 23.45 77.9917 23.4827C77.6171 23.5155 77.2425 23.4192 76.93 23.21C68.1367 17.3233 59.1667 15.02 50.02 16.3C47 16.72 44.3233 17.6533 41.99 19.1C32.41 25.02 27.17 33.5933 26.27 44.82C26.2526 45.0064 26.1669 45.1795 26.03 45.3054C25.8931 45.4312 25.7147 45.5006 25.53 45.5L1.22 45.51C0.693338 45.51 0.433339 45.2467 0.440005 44.72L0.479999 30.26C0.479999 29.92 0.650008 29.75 0.990008 29.75L13.27 29.84C13.77 29.8467 14.1167 29.6167 14.31 29.15Z" fill="#1F66CF"/>
<path d="M57.0872 57.7199C65.0346 57.6922 71.456 51.6121 71.4299 44.1398C71.4038 36.6674 64.9401 30.6323 56.9928 30.6601C49.0454 30.6878 42.624 36.7679 42.6501 44.2402C42.6762 51.7126 49.1399 57.7477 57.0872 57.7199Z" fill="#1F66CF"/>
<path d="M98.91 59.54C93.06 73.66 82.45 83.11 67.34 86.75C52.69 90.28 37.25 84.88 25.71 75.2C25.4233 74.96 25.4133 74.7033 25.68 74.43L34.75 65.29C34.9005 65.1363 35.1007 65.041 35.3149 65.0208C35.5291 65.0007 35.7434 65.0571 35.92 65.18C44.68 71.33 57.76 75.31 68.08 71.18C76.57 67.79 83.63 59.68 85.88 51.06C86.46 48.8467 86.8867 46.47 87.16 43.93C87.2133 43.4633 87.4733 43.2333 87.94 43.24L110.91 43.25C111.085 43.25 111.253 43.3195 111.377 43.4433C111.5 43.5671 111.57 43.735 111.57 43.91L111.49 58.27C111.49 58.3365 111.477 58.4024 111.451 58.4637C111.425 58.525 111.388 58.5806 111.34 58.6271C111.293 58.6737 111.236 58.7103 111.174 58.7349C111.113 58.7594 111.047 58.7713 110.98 58.77L100.16 58.71C99.56 58.7033 99.1433 58.98 98.91 59.54Z" fill="#1F66CF"/>
</svg>
